<svg xmlns="http://www.w3.org/2000/svg"
    xmlns:xlink="http://www.w3.org/1999/xlink" width="103.8" height="138.41" viewBox="0 0 103.8 138.41">
    <defs>
        <clipPath id="clip-Instagram-Post_4">
            <rect width="103.8" height="138.41"/>
        </clipPath>
    </defs>
    <g id="Instagram-Post_4" data-name="Instagram-Post – 4" clip-path="url(#clip-Instagram-Post_4)">
        <path id="Pfad_16" data-name="Pfad 16" d="M-4685.7,667.906c.108-.565.227-1.122.34-1.654q.086-.405.163-.774a3.364,3.364,0,0,1-.237-.716h-2.1a4.641,4.641,0,0,1-4.6-3.816V659.3a4.705,4.705,0,0,1,.584-1.55,10.1,10.1,0,0,1,6.862-4.722v1.349a8.822,8.822,0,0,0-5.725,4.045h0a3.318,3.318,0,0,0,2.88,5.02h2.1a3.4,3.4,0,0,1,.407-1.054q.159-.27.337-.526v6.046Zm-21.291,0a6.593,6.593,0,0,0-2.753-2.115,5.171,5.171,0,0,1-3.337-.015,2.707,2.707,0,0,1-.283,1.266,4.332,4.332,0,0,1-.578.864h-3.184a4.3,4.3,0,0,1-.577-.864,2.71,2.71,0,0,1-.284-1.223l-.788.319a3.242,3.242,0,0,1-2.791-.243,6.62,6.62,0,0,0-2.531,2.011h-1.583a8.034,8.034,0,0,1,2.948-2.9,5.768,5.768,0,0,1-1.361-5.858.661.661,0,0,1,.58-.451.66.66,0,0,1,.638.364l.8,1.6a2.8,2.8,0,0,0,1.663,1.427,2.809,2.809,0,0,0,2.188-.19l.888-.469-.823-3.236a.66.66,0,0,1,.119-.569.654.654,0,0,1,.215-.18h3.918a.661.661,0,0,1,.354.586v3.042a6.281,6.281,0,0,1,5.178,3.2.66.66,0,0,1,.1.5.661.661,0,0,1-.085.214,8.044,8.044,0,0,1,2.973,2.913Zm-9.6-3.634a.661.661,0,0,1,.13.727c-.479,1.089-.106,1.636.927,2.681,1.033-1.044,1.406-1.592.926-2.681a.662.662,0,0,1,.13-.727.662.662,0,0,1,.723-.152c1.352.547,2.513.9,3.858.308a4.618,4.618,0,0,0-4.267-2.013.662.662,0,0,1-.5-.175.661.661,0,0,1-.211-.484V658.7h-1.794l.741,2.916a.661.661,0,0,1-.332.747l-1.349.711a4.121,4.121,0,0,1-3.208.28,4.108,4.108,0,0,1-2.2-1.667,4.548,4.548,0,0,0,1.332,2.5,2.366,2.366,0,0,0,2.407.723l1.958-.793a.664.664,0,0,1,.248-.048A.662.662,0,0,1-4716.593,664.271Zm-63.936,3.634c-.037-.17-.07-.337-.1-.5h-1.613c-.029.162-.064.329-.1.5h-1.358c.042-.172.081-.34.114-.5h-.465q.049.251.1.5h-1.343c-.034-.171-.067-.339-.1-.5h-.6a3.277,3.277,0,0,1-1.927-.615c-.075.352-.153.727-.229,1.115h-.341v-6.046a8.661,8.661,0,0,1,2.743-2.539,8.574,8.574,0,0,1,4.323-1.168,8.751,8.751,0,0,1,2.111.26,8.639,8.639,0,0,0-7.4-4.227,8.555,8.555,0,0,0-1.778.189v-1.349q.288-.052.58-.088h2.393a9.981,9.981,0,0,1,7.348,4.81,4.746,4.746,0,0,1,.519,1.259,8.624,8.624,0,0,1,3.733,3.38,3.365,3.365,0,0,1,.4,1v1.4a3.293,3.293,0,0,1-3.232,2.619h-2.52c.032.161.068.328.109.5Zm-7.17-4.848a1.994,1.994,0,0,0,1.7,3.026h9.239a1.994,1.994,0,0,0,1.7-3.026,7.406,7.406,0,0,0-6.367-3.585A7.313,7.313,0,0,0-4787.7,663.058Zm2.3-.28a1.985,1.985,0,0,1,1.983-1.983,1.985,1.985,0,0,1,1.983,1.983,1.986,1.986,0,0,1-1.983,1.983A1.985,1.985,0,0,1-4785.4,662.779Zm1.322,0a.662.662,0,0,0,.661.661.662.662,0,0,0,.661-.661.661.661,0,0,0-.661-.661A.661.661,0,0,0-4784.078,662.779Zm5.288,1.322a.661.661,0,0,1,.661-.661.661.661,0,0,1,.661.661.661.661,0,0,1-.661.661A.661.661,0,0,1-4778.79,664.1Zm89.263-3.966a1.985,1.985,0,0,1,1.983-1.983,1.986,1.986,0,0,1,1.983,1.983,1.986,1.986,0,0,1-1.983,1.983A1.985,1.985,0,0,1-4689.527,660.135Zm1.322,0a.662.662,0,0,0,.661.661.662.662,0,0,0,.661-.661.662.662,0,0,0-.661-.661A.662.662,0,0,0-4688.2,660.135Zm-91.907,1.322a.661.661,0,0,1,.661-.661.661.661,0,0,1,.661.661.661.661,0,0,1-.661.661A.661.661,0,0,1-4780.111,661.457Zm27.023-1.148a.661.661,0,0,1-.354-.586V655.39l-.239-.359q-.211.019-.422.019a4.7,4.7,0,0,1-4.229-2.652,3.313,3.313,0,0,1-3.012-2.6V648.4a3.293,3.293,0,0,1,1.409-2.053,4.576,4.576,0,0,1-.161-1.209,4.7,4.7,0,0,1,5.032-4.658,5.966,5.966,0,0,1,4-2.583h1.866a5.965,5.965,0,0,1,4,2.583q.179-.014.36-.014a4.636,4.636,0,0,1,3.293,1.379,4.637,4.637,0,0,1,1.378,3.293,4.6,4.6,0,0,1-.161,1.209,3.292,3.292,0,0,1,1.408,2.054V649.8a3.312,3.312,0,0,1-3.012,2.6,4.7,4.7,0,0,1-4.229,2.652c-.141,0-.282-.007-.422-.019l-.239.359v4.332a.662.662,0,0,1-.354.586Zm-1.735-10.587a3.288,3.288,0,0,1-.268.813l2.859,4.29a.661.661,0,0,1,.111.366v3.872h3.967V655.19a.661.661,0,0,1,.111-.366l2.86-4.29a3.268,3.268,0,0,1-.268-.812,4.49,4.49,0,0,1-.682-.147l-2.132,3.2a.661.661,0,0,1-1.211-.367v-2.682a5.9,5.9,0,0,1-.662.038,5.888,5.888,0,0,1-.661-.038v2.682a.661.661,0,0,1-1.211.367l-2.132-3.2A4.459,4.459,0,0,1-4754.823,649.721Zm7.955-1.994a3.263,3.263,0,0,0,2.02.712.661.661,0,0,1,.661.661,1.975,1.975,0,0,0,.33,1.1.662.662,0,0,1,0,.732l-1.843,2.765a3.38,3.38,0,0,0,2.695-2.177.661.661,0,0,1,.679-.44c.055,0,.112.007.168.007a1.985,1.985,0,0,0,1.983-1.983,1.979,1.979,0,0,0-1.222-1.831.662.662,0,0,1-.356-.865,3.272,3.272,0,0,0,.256-1.271,3.394,3.394,0,0,0-3.35-3.35,3.3,3.3,0,0,0-2.337.969.662.662,0,0,1-.935,0,.661.661,0,0,1,0-.935,4.623,4.623,0,0,1,1.511-1.01,4.605,4.605,0,0,0-3.528-1.668,4.605,4.605,0,0,0-3.527,1.668,4.617,4.617,0,0,1,1.511,1.01.661.661,0,0,1,0,.935.661.661,0,0,1-.935,0,3.287,3.287,0,0,0-2.234-.966,3.39,3.39,0,0,0-3.453,3.347,3.271,3.271,0,0,0,.255,1.271.661.661,0,0,1-.355.865,1.978,1.978,0,0,0-1.222,1.831,1.985,1.985,0,0,0,1.983,1.983c.056,0,.112,0,.167-.007a.662.662,0,0,1,.679.44,3.38,3.38,0,0,0,2.695,2.177l-1.843-2.765a.66.66,0,0,1,0-.732,1.975,1.975,0,0,0,.33-1.1.661.661,0,0,1,.661-.661,3.262,3.262,0,0,0,2.02-.712.661.661,0,0,1,.766-.034,4.6,4.6,0,0,0,2.5.746,4.6,4.6,0,0,0,2.5-.746.662.662,0,0,1,.359-.106A.659.659,0,0,1-4746.868,647.728Zm-1.286,1.689v.807l.761-1.141A5.971,5.971,0,0,1-4748.154,649.416Zm-3.967.807v-.807a5.939,5.939,0,0,1-.76-.335Zm-34.6,7.268a.661.661,0,0,1,.661-.661.661.661,0,0,1,.661.661.661.661,0,0,1-.661.661A.661.661,0,0,1-4786.721,657.491Zm101.161-1.322a.661.661,0,0,1,.661-.661.661.661,0,0,1,.205.032V656.8a.662.662,0,0,1-.205.032A.661.661,0,0,1-4685.561,656.169Zm-102.939-.629a.661.661,0,0,1,.456.629.662.662,0,0,1-.456.629Zm71.6-10.276a11.258,11.258,0,0,1-9.81-9.54c-.014-.1-.027-.2-.039-.306v-2.63a11.4,11.4,0,0,1,1.641-4.743,1.989,1.989,0,0,1-1.641-1.423v-2.407a1.991,1.991,0,0,1,1.368-1.367h5.416a1.982,1.982,0,0,1,1.342,1.281l.44,1.323a1.982,1.982,0,0,1-1.882,2.61h-.15c-.087.52-.231,1.137-.4,1.783.007.195.022.389.045.581a6.893,6.893,0,0,0,3.986,2.9,7.051,7.051,0,0,0,6.761-1.832,24.374,24.374,0,0,1,2.436-2.3,1.935,1.935,0,0,1,2.256-.021,1.973,1.973,0,0,1,.8,1.079v1.063a7.432,7.432,0,0,1-1.05,2.842,2.065,2.065,0,0,1,.346.319,1.927,1.927,0,0,1,.238,2.234c-1.236,2.171-1.6,2.492-2.389,2.992a1.932,1.932,0,0,1-.311,2.293,11.353,11.353,0,0,1-6.785,3.265Zm-8.5-9.724a9.97,9.97,0,0,0,9.8,8.477,10.174,10.174,0,0,0,5.634-1.693,3.317,3.317,0,0,1-.889-1.934c-.369.1-.763.208-1.176.323a8.342,8.342,0,0,1-8.073-2.088,8.2,8.2,0,0,1-2.139-7.829h-2.716A10.3,10.3,0,0,0-4725.4,635.54Zm16.429,4.444c-.172.019-.365.05-.574.092a1.988,1.988,0,0,0,.64,1.434q.24-.211.465-.439a.616.616,0,0,0,.1-.715.619.619,0,0,0-.56-.375A.66.66,0,0,0-4708.966,639.984Zm-10.193-2.3a7.052,7.052,0,0,0,6.783,1.75c.764-.213,1.466-.408,2.085-.553l.009,0a10.252,10.252,0,0,1,1.172-.214,1.912,1.912,0,0,1,.913.121,3.446,3.446,0,0,0,1.224-1.059,3.319,3.319,0,0,1-1.474-1.706c-.332.19-.684.4-1.053.617a8.347,8.347,0,0,1-8.341.049,8.2,8.2,0,0,1-2.949-2.913q-.205-.347-.375-.711A6.869,6.869,0,0,0-4719.159,637.689Zm12.421-2.541c-.161.063-.339.143-.53.237a1.988,1.988,0,0,0,1,1.227c.1-.167.2-.351.32-.553a.616.616,0,0,0-.089-.716.666.666,0,0,0-.483-.239A.609.609,0,0,0-4706.738,635.148Zm-10.443.4a7.055,7.055,0,0,0,7.008-.042c.684-.4,1.312-.775,1.873-1.074l.006,0a5.9,5.9,0,0,1,1.465-.617c.374-.473.463-.407.682-.987a3.316,3.316,0,0,1-1.873-1.265c-.265.265-.558.565-.851.865a8.341,8.341,0,0,1-8.047,2.183,8.165,8.165,0,0,1-2.511-1.159A6.849,6.849,0,0,0-4717.181,635.547Zm10.583-5.283c-.139.1-.29.226-.45.367a1.99,1.99,0,0,0,1.288.925c.051-.185.105-.39.165-.618a.616.616,0,0,0-.271-.668.716.716,0,0,0-.385-.124A.578.578,0,0,0-4706.6,630.263Zm-18.9-5.506v1.322a.662.662,0,0,0,.662.661h1a.661.661,0,0,1,.6.375.661.661,0,0,1-.081.7,9.7,9.7,0,0,0-1.069,1.658h2.513a14.745,14.745,0,0,0,.419-2.064.662.662,0,0,1,.661-.669h.739a.661.661,0,0,0,.627-.87l-.441-1.322a.659.659,0,0,0-.627-.452h-4.336A.662.662,0,0,0-4725.5,624.757Zm40.292,15.994a5.7,5.7,0,0,1-3.2-2.336,12.877,12.877,0,0,1-2.233-5.391,12.772,12.772,0,0,1,.232-5.565,5.342,5.342,0,0,1,3.928-3.737,5.566,5.566,0,0,1,1.788-.141v1.333a4.193,4.193,0,0,0-1.477.093,3.983,3.983,0,0,0-2.968,2.819,11.573,11.573,0,0,0-.2,4.968,11.527,11.527,0,0,0,1.99,4.828,4.193,4.193,0,0,0,2.655,1.871v1.257Zm-96.658,0a3.249,3.249,0,0,1-.854-.321,4.27,4.27,0,0,0-2.022-.518,4.259,4.259,0,0,0-2.021.518,3.277,3.277,0,0,1-.855.32h-.884v-1.257c.064.006.127.01.19.01a1.915,1.915,0,0,0,.92-.236,5.587,5.587,0,0,1,2.651-.677,5.6,5.6,0,0,1,2.652.677,1.9,1.9,0,0,0,.918.236,3.964,3.964,0,0,0,2.845-1.88,11.53,11.53,0,0,0,1.99-4.829h0a11.7,11.7,0,0,0-.158-4.825,3.908,3.908,0,0,0-2.919-2.863,3.749,3.749,0,0,0-3.5.716,2.519,2.519,0,0,1-1.825.786h0a2.521,2.521,0,0,1-1.825-.787,3.156,3.156,0,0,0-1.935-.906v-1.334a4.477,4.477,0,0,1,2.9,1.332,1.2,1.2,0,0,0,.22.182,5.912,5.912,0,0,1,.324-1.547h-2.324a4.619,4.619,0,0,1-1.116-.136v-1.38a3.289,3.289,0,0,0,1.116.194h1.917a3.312,3.312,0,0,0-3.033-2.638v-1.253h.627a4.64,4.64,0,0,1,3.693,3.59,5.944,5.944,0,0,1,4.729-2.343.661.661,0,0,1,.661.661.661.661,0,0,1-.661.661,4.635,4.635,0,0,0-4.6,4.166,1.19,1.19,0,0,0,.18-.155,5.034,5.034,0,0,1,4.788-1.091,5.232,5.232,0,0,1,3.873,3.8,12.91,12.91,0,0,1,.184,5.4,12.875,12.875,0,0,1-2.233,5.391,5.7,5.7,0,0,1-3.2,2.336Zm30.589-15.044a8.636,8.636,0,0,1-7.458-8.563,8.6,8.6,0,0,1,4.912-7.764,6,6,0,0,1-3.59-5.5.661.661,0,0,1,.355-.586h2.571a5.95,5.95,0,0,1,3.813,2.321,3.317,3.317,0,0,1,2.475-2.321h1.009a.662.662,0,0,1,.354.586.661.661,0,0,1-.661.661,1.986,1.986,0,0,0-1.983,1.983v2.053a8.606,8.606,0,0,1,7.934,8.569,8.637,8.637,0,0,1-7.458,8.563Zm1.8-1.277a7.31,7.31,0,0,0,6.611-7.286,7.282,7.282,0,0,0-6.611-7.242Zm-7.934-7.286a7.31,7.31,0,0,0,6.611,7.286v-1.373a5.958,5.958,0,0,1-5.289-5.913,5.958,5.958,0,0,1,5.289-5.913V609.9h0A7.282,7.282,0,0,0-4757.41,617.143Zm4.871,3.954a4.6,4.6,0,0,0,1.741.626v-2.739Zm-1.02-.842,2.021-2.451h-3.179A4.616,4.616,0,0,0-4753.559,620.256Zm-1.158-3.773h2.984l-2.109-2.109A4.6,4.6,0,0,0-4754.717,616.483Zm1.81-3.044,2.109,2.109v-2.984A4.607,4.607,0,0,0-4752.907,613.438Zm1.448-4.889h.615a4.649,4.649,0,0,0-4.582-4.011h-.615A4.649,4.649,0,0,0-4751.459,608.549Zm63.253,10.372a.66.66,0,0,1,.354-.586h3.157v1.253c-.068,0-.137-.006-.206-.006h-1.917a3.319,3.319,0,0,0,2.123,2.45v1.38A4.635,4.635,0,0,1-4688.206,618.921Zm-57.3-4.422a.661.661,0,0,1,.661-.661.661.661,0,0,1,.661.661.661.661,0,0,1-.661.661A.661.661,0,0,1-4745.509,614.5Zm-2.645,0a.661.661,0,0,1,.661-.661.661.661,0,0,1,.661.661.661.661,0,0,1-.661.661A.661.661,0,0,1-4748.154,614.5Zm1.322-1.322a.661.661,0,0,1,.661-.661.661.661,0,0,1,.661.661.661.661,0,0,1-.661.661A.661.661,0,0,1-4746.832,613.177Zm20.368-2.514a.658.658,0,0,1-.162-.119.649.649,0,0,1-.118-.161v-.613c1.549-3.1,1.735-4,1.528-7.395a7.228,7.228,0,0,1,2.093-5.553,7.263,7.263,0,0,1,5.857-2.092,3.967,3.967,0,0,1-.209-1.271,3.949,3.949,0,0,1,2.93-3.82,2.632,2.632,0,0,1,1.733-1.393h1.253a2.651,2.651,0,0,1,1.528,1.04,3.308,3.308,0,0,1,1.771-1.04h1.4a3.316,3.316,0,0,1,2.528,2.527v1.406a3.308,3.308,0,0,1-1.04,1.77,2.652,2.652,0,0,1,1.04,1.528v1.254a2.631,2.631,0,0,1-1.393,1.733,3.95,3.95,0,0,1-3.82,2.93,3.97,3.97,0,0,1-1.206-.188,7.391,7.391,0,0,1,.039.76,7.224,7.224,0,0,1-2.13,5.142,7.227,7.227,0,0,1-5.553,2.093c-3.51-.214-4.489-.023-7.461,1.462Zm2.568-8.367c.18,2.945.06,4.245-.878,6.4,2.081-.882,3.457-1,6.464-.817a5.915,5.915,0,0,0,4.177-1.378,10.485,10.485,0,0,1-2.644-.866.661.661,0,0,1-.308-.883.661.661,0,0,1,.883-.308,9.8,9.8,0,0,0,3.131.884,5.951,5.951,0,0,0-.7-7.572,5.939,5.939,0,0,0-4.661-1.723,9.224,9.224,0,0,0,.586,1.515,9.264,9.264,0,0,0,1.79,2.483.661.661,0,0,1,0,.935.661.661,0,0,1-.935,0,10.584,10.584,0,0,1-2.044-2.837,10.512,10.512,0,0,1-.706-1.854,5.911,5.911,0,0,0-2.449,1.476,5.825,5.825,0,0,0-.913,1.185,9.243,9.243,0,0,0,1.754,2.413.661.661,0,0,1,0,.935.661.661,0,0,1-.935,0,10.606,10.606,0,0,1-1.454-1.8A5.936,5.936,0,0,0-4723.9,602.3Zm12.778-2.745a2.645,2.645,0,0,0,1.576.522,2.633,2.633,0,0,0,2.6-2.2.66.66,0,0,1,.449-.518,1.315,1.315,0,0,0,.92-1.25,1.324,1.324,0,0,0-1.322-1.322,3.972,3.972,0,0,1-3.967,3.967,3.974,3.974,0,0,1-.614-.048A7.163,7.163,0,0,1-4711.117,599.55Zm1.382-5.9a.661.661,0,0,1,0,.935l-2.47,2.471a2.626,2.626,0,0,0,1.342.367,2.647,2.647,0,0,0,2.59-3.18.662.662,0,0,1,.141-.557.658.658,0,0,1,.523-.237,1.975,1.975,0,0,0,2.035-1.977,1.986,1.986,0,0,0-1.983-1.984,1.986,1.986,0,0,0-1.983,1.951.662.662,0,0,1-.787.748,2.648,2.648,0,0,0-3.18,2.591,2.628,2.628,0,0,0,.367,1.342l2.471-2.471a.659.659,0,0,1,.467-.194A.657.657,0,0,1-4709.735,593.654Zm-3.7-3.24a.66.66,0,0,1-.518.449,2.633,2.633,0,0,0-2.2,2.6,2.638,2.638,0,0,0,.571,1.64,7.2,7.2,0,0,1,.806.336,3.955,3.955,0,0,1-.054-.654,3.971,3.971,0,0,1,3.967-3.967,1.324,1.324,0,0,0-1.322-1.322A1.314,1.314,0,0,0-4713.436,590.414Zm28.566,15.735a2.625,2.625,0,0,1-1.882-1.763c-2.677-1.116-4.953-4.1-5.389-8.027v-2.753c.439-3.981,2.744-7,5.389-8.109a2.627,2.627,0,0,1,1.883-1.763h.175v1.328a1.314,1.314,0,0,0-.843,1.032.662.662,0,0,1-.433.519c-2.854,1.011-4.924,4.532-4.924,8.373s2.025,7.258,4.924,8.285a.66.66,0,0,1,.432.519,1.315,1.315,0,0,0,.844,1.032v1.328Zm-97.657,0a7.882,7.882,0,0,1-3.246-1.221,2.62,2.62,0,0,1-1.641,1.221h-1.085v-1.328a1.317,1.317,0,0,0,.455.081,1.309,1.309,0,0,0,1.211-.8,7.983,7.983,0,0,1-1.666-2.2v-7.208a7.954,7.954,0,0,1,6.053-4.265,7.252,7.252,0,0,0-3.867-3.81.661.661,0,0,1-.432-.519,1.313,1.313,0,0,0-1.3-1.113,1.316,1.316,0,0,0-.455.081v-1.328h1.086a2.625,2.625,0,0,1,1.882,1.764,8.908,8.908,0,0,1,4.51,4.87,7.975,7.975,0,0,1,7.49,6.832v2.182a7.973,7.973,0,0,1-6.8,6.767Zm.83-14.464a6.62,6.62,0,0,0-6.347,6.606,6.619,6.619,0,0,0,6.611,6.611,6.641,6.641,0,0,0,6.655-6.611,6.642,6.642,0,0,0-6.652-6.611Q-4781.563,591.68-4781.7,591.685Zm.265,11.895h0a5.3,5.3,0,0,1-5.289-5.289,5.3,5.3,0,0,1,5.289-5.289,5.3,5.3,0,0,1,5.289,5.289,5.3,5.3,0,0,1-5.289,5.289Zm.661-1.378a3.943,3.943,0,0,0,1.636-.679l-1.636-1.636Zm-2.958-.679a3.946,3.946,0,0,0,1.636.679v-2.315Zm5.529-.935a3.951,3.951,0,0,0,.68-1.637h-2.315Zm-6.464,0,1.636-1.636h-2.315A3.948,3.948,0,0,0-4784.665,600.589Zm4.828-2.958h2.315a3.948,3.948,0,0,0-.68-1.636Zm-5.508,0h2.315l-1.636-1.636A3.948,3.948,0,0,0-4785.345,597.63Zm4.573-.935,1.636-1.636a3.942,3.942,0,0,0-1.636-.679Zm-2.958-1.636,1.636,1.636V594.38A3.945,3.945,0,0,0-4783.73,595.059Zm98.168,3.232a7.883,7.883,0,0,1,.867-3.6v7.208A7.882,7.882,0,0,1-4685.562,598.291Zm-64.908-7.186c-.247-.081-.5-.162-.763-.246-3.742-1.2-7.423-2.619-8.53-7.6a6.411,6.411,0,0,1,6.167-7.985,6.521,6.521,0,0,1,2.841.567q.028-.293.073-.585a10.194,10.194,0,0,1-3.372-.765,13.073,13.073,0,0,1-4.483-3.381.661.661,0,0,1-.143-.72.661.661,0,0,1,.611-.408h3.966a4.634,4.634,0,0,1,4.2,2.69c.074-.16.152-.319.235-.475a9.572,9.572,0,0,1,3.13-3.471.64.64,0,0,1,.06-.036h.613a.661.661,0,0,1,.244.219.661.661,0,0,1-.184.917,8.255,8.255,0,0,0-3.621,5.974,6.634,6.634,0,0,1,6.35.636,6.343,6.343,0,0,1,2.564,6.823c-1.154,5.194-5.18,6.528-8.535,7.6-.263.084-.513.164-.758.245Zm-8-8.133c1,4.507,4.529,5.634,7.641,6.628.24.077.469.15.695.224.225-.074.452-.146.689-.222,3.116-1,6.647-2.128,7.647-6.629a5.033,5.033,0,0,0-2.02-5.445h0a5.287,5.287,0,0,0-5.126-.493,6.6,6.6,0,0,1,2.115,4.847.661.661,0,0,1-.661.661.661.661,0,0,1-.662-.661,5.3,5.3,0,0,0-5.288-5.292A5.1,5.1,0,0,0-4758.473,582.972Zm2.032-11.636a8.848,8.848,0,0,0,5.57,2.582,3.312,3.312,0,0,0-3.233-2.615h-2.37Zm39.063,4.725a5.167,5.167,0,0,1-3.653-2.607,3.728,3.728,0,0,1-3.332-1.357,3.726,3.726,0,0,1-1.132-2.652,3.87,3.87,0,0,1,.406-1.649,3.316,3.316,0,0,1-.994-.825,3.292,3.292,0,0,1-.66-1.378V564.2a3.276,3.276,0,0,1,.437-1.06,2.627,2.627,0,0,1-.437-.932v-1.244a2.649,2.649,0,0,1,2.569-2.019h.065a3.335,3.335,0,0,1,3.241-2.69l.114,0a2.06,2.06,0,0,1,1.913-1.369,1.893,1.893,0,0,1,.594.1,3.282,3.282,0,0,1,2.006-1.342h1.411a3.282,3.282,0,0,1,2.006,1.342,1.9,1.9,0,0,1,.594-.1,2,2,0,0,1,1.874,1.368,3.332,3.332,0,0,1,3.35,2.688h.065a2.693,2.693,0,0,1,1.884.768,2.624,2.624,0,0,1,.729,1.257v1.239a2.626,2.626,0,0,1-.437.931,3.275,3.275,0,0,1,.437,1.06v1.378a3.364,3.364,0,0,1-1.7,2.219,3.874,3.874,0,0,1,.4,1.646,3.726,3.726,0,0,1-1.132,2.652,3.728,3.728,0,0,1-3.33,1.357,5.077,5.077,0,0,1-3.61,2.607Zm-2.665-3.608a3.818,3.818,0,0,0,3.53,2.36h.35a16.267,16.267,0,0,1-3.6-4.214l-2.356.243a.661.661,0,0,1-.725-.59.661.661,0,0,1,.59-.726l1.817-.188a15.631,15.631,0,0,1-.991-2.664l-2.377-1.188a.662.662,0,0,1-.3-.887.661.661,0,0,1,.887-.3l1.688.844v-2.9a.661.661,0,0,1,.661-.661.661.661,0,0,1,.661.661v3.882a14.347,14.347,0,0,0,.708,2.083l.732-1.053a.661.661,0,0,1,.92-.165.662.662,0,0,1,.166.92l-1.152,1.655a14.928,14.928,0,0,0,3.433,4.154l-.925-3.238a3.427,3.427,0,0,1,.807-3.208,2.656,2.656,0,0,0,.53-2.513,2.636,2.636,0,0,0-3.11-1.8.663.663,0,0,1-.558-.14.666.666,0,0,1-.23-.608,1.985,1.985,0,0,0-1.983-1.951,1.973,1.973,0,0,0-1.345.536.661.661,0,0,1-.956-.058,1.316,1.316,0,0,0-1.005-.477,1.324,1.324,0,0,0-1.322,1.322,1.317,1.317,0,0,0,.478,1.005.662.662,0,0,1,.058.956,1.973,1.973,0,0,0-.536,1.344,1.97,1.97,0,0,0,1.542,1.929.661.661,0,0,1,.477.427.662.662,0,0,1-.107.631,2.613,2.613,0,0,0-.589,1.589,2.4,2.4,0,0,0,.75,1.695c1.155,1.166,1.914,1.081,2.592.895a.662.662,0,0,1,.175-.024A.662.662,0,0,1-4720.042,572.453Zm6.083,1.5.219.766a3.734,3.734,0,0,0,2.668-2.271.661.661,0,0,1,.789-.392c.678.187,1.437.271,2.592-.895a2.4,2.4,0,0,0,.75-1.695,2.619,2.619,0,0,0-.589-1.589.66.66,0,0,1-.108-.631.661.661,0,0,1,.478-.427,2.018,2.018,0,0,0,1.586-1.929,1.972,1.972,0,0,0-.536-1.345.66.66,0,0,1-.175-.49.661.661,0,0,1,.234-.465,1.315,1.315,0,0,0,.478-1.005,1.363,1.363,0,0,0-1.366-1.322,1.316,1.316,0,0,0-1.005.477.663.663,0,0,1-.465.234.664.664,0,0,1-.491-.176,1.972,1.972,0,0,0-1.344-.536,1.986,1.986,0,0,0-1.983,1.951.662.662,0,0,1-.788.748,2.752,2.752,0,0,0-1.4.085,3.836,3.836,0,0,1,.706,1.353,3.956,3.956,0,0,1-.8,3.742,2.133,2.133,0,0,0-.535,1.98l.677,2.368a14.641,14.641,0,0,0,2.074-2.854c.009-.019.018-.038.028-.057l-1.159-1.666a.662.662,0,0,1,.166-.92.661.661,0,0,1,.92.165l.736,1.059a14.692,14.692,0,0,0,.7-2.089v-3.882a.661.661,0,0,1,.661-.661.661.661,0,0,1,.661.661v2.9l1.688-.844a.661.661,0,0,1,.887.3.661.661,0,0,1-.3.887l-2.376,1.188a16.012,16.012,0,0,1-.98,2.665l1.807.187a.662.662,0,0,1,.59.726.661.661,0,0,1-.726.59l-2.337-.241A15.98,15.98,0,0,1-4713.959,573.958Zm-1.577-11.854a3.774,3.774,0,0,1,.709-.311,4.155,4.155,0,0,1,1.341-.2,3.312,3.312,0,0,1,3.239-2.644,3.27,3.27,0,0,1,1.754.511q.1-.074.208-.138a2.03,2.03,0,0,0-1.962-1.74,1.96,1.96,0,0,0-.51.077.66.66,0,0,1-.594-.13.666.666,0,0,1-.221-.666.7.7,0,0,0-.659-.647.64.64,0,0,0-.423.173.662.662,0,0,1-.588.143.661.661,0,0,1-.458-.4,1.973,1.973,0,0,0-1.836-1.243,1.973,1.973,0,0,0-1.836,1.243.661.661,0,0,1-.458.4.661.661,0,0,1-.588-.143.641.641,0,0,0-.423-.173.747.747,0,0,0-.7.648.666.666,0,0,1-.221.665.661.661,0,0,1-.594.13,1.963,1.963,0,0,0-.51-.077,2.029,2.029,0,0,0-1.962,1.74c.071.043.14.088.207.138a3.271,3.271,0,0,1,1.755-.511,3.311,3.311,0,0,1,3.239,2.645h.085A4.093,4.093,0,0,1-4715.536,562.1Zm23.674,9.443a.662.662,0,0,1-.161-.118.654.654,0,0,1-.118-.161v-.612l.014-.026c.4-.692,2.382-4.087,4.455-7.5a2.876,2.876,0,0,0-2.522.8.66.66,0,0,1-.935,0,.661.661,0,0,1,0-.935,4.2,4.2,0,0,1,4.18-1.045c.361-.589,1.313-2.143,2.255-3.591v2.466c-.367.587-.75,1.205-1.139,1.84l.355.355a.662.662,0,0,1,0,.935.661.661,0,0,1-.935,0l-.128-.128c-1.118,1.841-2.243,3.73-3.163,5.289,1.118-.659,2.406-1.424,3.723-2.217l-.092-.092a.661.661,0,0,1,0-.935.66.66,0,0,1,.935,0l.324.323.12-.073v1.549c-3.063,1.847-5.9,3.5-6.528,3.867l-.026.014Zm-96.637-5.43c.886-.538,1.766-1.076,2.6-1.591l-.577-.576a.661.661,0,0,1,0-.935.661.661,0,0,1,.935,0l.792.793c1.458-.918,2.673-1.716,3.371-2.239l-1.358-1.358a.661.661,0,0,1,0-.935.661.661,0,0,1,.935,0l1.355,1.356a3.3,3.3,0,0,0-.42-4.161,3.3,3.3,0,0,0-3.076-.885l1.045,1.046a.661.661,0,0,1,0,.935.661.661,0,0,1-.935,0l-1.382-1.382a3.245,3.245,0,0,0-.328.286,13.429,13.429,0,0,0-1.194,1.611l1.194,1.194a.662.662,0,0,1,0,.935.661.661,0,0,1-.935,0l-1-1c-.32.5-.663,1.038-1.021,1.61v-2.466a23.769,23.769,0,0,1,2.021-2.819,4.616,4.616,0,0,1,4.236-1.255,10.571,10.571,0,0,0,.854-4.528.66.66,0,0,1,.181-.489.653.653,0,0,1,.173-.13h.992a3.086,3.086,0,0,1,1.846,1.226,7.023,7.023,0,0,1,3.05-1.226h1.336a.661.661,0,0,1,.279.279v1.335a7.019,7.019,0,0,1-1.226,3.051,3.085,3.085,0,0,1,1.226,1.846v.992a.661.661,0,0,1-.13.173.664.664,0,0,1-.489.181,10.58,10.58,0,0,0-4.528.854,4.621,4.621,0,0,1-.885,3.82,3.736,3.736,0,0,1,.46,2.527,3.736,3.736,0,0,1-1.744,2.558.661.661,0,0,1-.908-.222.661.661,0,0,1,.222-.908,2.412,2.412,0,0,0,1.126-1.653,2.417,2.417,0,0,0-.159-1.36c-1.49,1.119-4.827,3.189-7.933,5.062Zm10.048-10.814c-.174.09-.353.183-.542.279-.113.231-.221.469-.321.718.063.1.124.2.179.3a12.275,12.275,0,0,1,4.23-.94,1.784,1.784,0,0,0-.722-.856,1.533,1.533,0,0,0-.829-.268A4.967,4.967,0,0,0-4778.452,555.3Zm-2.549-.567a4.6,4.6,0,0,1,.716.481c.182-.388.372-.745.571-1.117.611-1.142,1.079-1.95.509-2.872a1.781,1.781,0,0,0-.856-.722A12.279,12.279,0,0,1-4781,554.737Zm3.341-3.128a2.923,2.923,0,0,1-.041,1.156,4.768,4.768,0,0,1-.282.831,3.312,3.312,0,0,1,1.985-.347,5.707,5.707,0,0,0,1.176-2.827A5.7,5.7,0,0,0-4777.66,551.609Zm27.366,4.895a6.627,6.627,0,0,1-1.737-.517,6.538,6.538,0,0,1-1.734.517h-2c-.139-.021-.277-.045-.417-.074a6.645,6.645,0,0,1-5.145-5.337c-.007-.041-.013-.082-.02-.123v-2a6.554,6.554,0,0,1,1.246-2.962,6.689,6.689,0,0,0,1.369-3.972,4.007,4.007,0,0,1,1.158-2.822l.013-.012a3.645,3.645,0,0,1-1.941-1.384,3.73,3.73,0,0,1-.518-3.35.661.661,0,0,1,.321-.377h2.157a3.636,3.636,0,0,1,2.225,1.455,3.743,3.743,0,0,1,.364.625,4.268,4.268,0,0,1,.4-.637,4.155,4.155,0,0,1,2.071-1.444h.665a.661.661,0,0,1,.335.426.661.661,0,0,1-.481.8,2.891,2.891,0,0,0-2.143,2.765,4.019,4.019,0,0,1,3.305,3.957,6.6,6.6,0,0,0,.107,1.181,6.525,6.525,0,0,0,1.916-2.1,3.965,3.965,0,0,1,4.819-1.734,4.017,4.017,0,0,1,4.622-1.894.659.659,0,0,1,.4.331v.61a.661.661,0,0,1-.769.331,2.681,2.681,0,0,0-3.113,1.284,3.964,3.964,0,0,1,.907,5.039,6.665,6.665,0,0,0-.838,4.1,6.549,6.549,0,0,1-.838,4.088,6.6,6.6,0,0,1-4.73,3.231Zm2.665-14.729-.013.022a7.815,7.815,0,0,1-3.74,3.307,5.288,5.288,0,0,0-2.893,3.044,5.244,5.244,0,0,0,1.392,5.722,5.3,5.3,0,0,0,8.157-1.259,5.238,5.238,0,0,0,.67-3.269,7.992,7.992,0,0,1,1-4.921,2.648,2.648,0,0,0-.966-3.615,2.634,2.634,0,0,0-1.32-.355A2.642,2.642,0,0,0-4747.629,541.775Zm-9.78.259a8.013,8.013,0,0,1-1.634,4.765,5.287,5.287,0,0,0-.979,4.077,5.342,5.342,0,0,0,4.111,4.259,5.418,5.418,0,0,0,2.433-.038q-.146-.116-.286-.241a6.6,6.6,0,0,1-1.749-7.172,6.6,6.6,0,0,1,3.613-3.8,7.914,7.914,0,0,1-.221-1.851,2.672,2.672,0,0,0-2.644-2.692A2.67,2.67,0,0,0-4757.409,542.034Zm-1.02-4.992a2.317,2.317,0,0,0,1.9.981h.584a2.38,2.38,0,0,0-.439-1.707,2.318,2.318,0,0,0-1.9-.981h-.585A2.38,2.38,0,0,0-4758.429,537.042Zm7.14,16.36a3.964,3.964,0,0,1-1.451-5.418,3.971,3.971,0,0,1,5.418-1.452,3.971,3.971,0,0,1,1.452,5.418,3.963,3.963,0,0,1-3.437,1.985A3.952,3.952,0,0,1-4751.289,553.4Zm-.307-4.757a2.642,2.642,0,0,0,.968,3.612,2.642,2.642,0,0,0,3.612-.968,2.647,2.647,0,0,0-.968-3.612,2.626,2.626,0,0,0-1.317-.354A2.65,2.65,0,0,0-4751.6,548.645Zm38.279-7.186a7.884,7.884,0,0,1-1.137-.246,3.879,3.879,0,0,0-2.165,0,7.9,7.9,0,0,1-1.137.246h-2.177q-.318-.043-.635-.112a7.969,7.969,0,0,1-6.09-6.126q-.051-.261-.086-.522v-2.138a8.106,8.106,0,0,1,1.061-3.062h1.583a6.8,6.8,0,0,0-1.262,5.464,6.631,6.631,0,0,0,5.072,5.091,6.607,6.607,0,0,0,3.3-.11,5.218,5.218,0,0,1,2.912,0,6.605,6.605,0,0,0,3.285.112,6.625,6.625,0,0,0,5.094-5.149,6.824,6.824,0,0,0-1.292-5.408h1.6a8.11,8.11,0,0,1,1.062,3.061V534.7c-.02.152-.045.305-.074.458a7.961,7.961,0,0,1-6.116,6.195q-.312.067-.623.109Zm-69.009-4.513a2.681,2.681,0,0,1-1.736-.97,2.448,2.448,0,0,1-.144-.212,2.654,2.654,0,0,1-.18.248,2.652,2.652,0,0,1-1.573.934h-1.533a2.806,2.806,0,0,1-1.008-.409v-2.443a2.374,2.374,0,0,0,.44,1.073,1.606,1.606,0,0,0,1.338.53,1.578,1.578,0,0,0,1.311-.519c.872-1.072.5-3.672.112-5.679h1.343q.055.3.1.589c.053-.2.1-.4.151-.589h1.358c-.1.437-.223.9-.351,1.373-.418,1.555-.94,3.491-.319,4.3a1.915,1.915,0,0,0,1.579.525,1.9,1.9,0,0,0,1.555-.513c.61-.79.128-2.629-.3-4.251-.13-.5-.256-.976-.354-1.434h1.355c.082.351.179.72.278,1.1.526,2.011,1.07,4.089.063,5.393a2.659,2.659,0,0,1-1.713.955Zm97.042-.947c-1.167-1.442-.889-4.049-.419-6.5h1.007v2.128a8.784,8.784,0,0,0,0,2.466v2.443A2.632,2.632,0,0,1-4685.283,536Zm-103.217-6.5h.341c-.135.691-.261,1.421-.341,2.128Zm72.5,1.175c-.385-.384-.786-.768-1.125-1.175h3.185c-.341.41-.745.8-1.125,1.175a.658.658,0,0,1-.467.194A.659.659,0,0,1-4716,530.674Z" transform="translate(4788.499 -529.499)" fill="#828282" opacity="0.25"/>
    </g>
</svg>
